<svg width="63" height="63" viewBox="0 0 63 63" fill="none" xmlns="http://www.w3.org/2000/svg">
<path d="M31.5 0C14.1047 0 0 14.4703 0 32.3016C0 46.575 9.02812 58.6687 21.5437 62.9437C21.7193 62.9819 21.8985 63.0007 22.0781 63C23.2453 63 23.6953 62.1422 23.6953 61.3969C23.6953 60.6234 23.6672 58.5984 23.6531 55.8984C22.6111 56.1427 21.5452 56.27 20.475 56.2781C14.4141 56.2781 13.0359 51.5672 13.0359 51.5672C11.6016 47.8406 9.53438 46.8422 9.53438 46.8422C6.79219 44.9156 9.52031 44.8594 9.73125 44.8594H9.74531C12.9094 45.1406 14.5688 48.2062 14.5688 48.2062C16.1438 50.9625 18.2531 51.7359 20.1375 51.7359C21.3835 51.711 22.6102 51.4235 23.7375 50.8922C24.0188 48.8109 24.8344 47.3906 25.7344 46.575C18.7453 45.7594 11.3906 42.989 11.3906 30.614C11.3906 27.0844 12.6141 24.2016 14.625 21.9516C14.3016 21.1359 13.2188 17.8453 14.9344 13.4016C15.1645 13.3465 15.401 13.3228 15.6375 13.3312C16.7766 13.3312 19.35 13.7672 23.5969 16.7203C28.7572 15.2765 34.2147 15.2765 39.375 16.7203C43.6219 13.7672 46.1953 13.3312 47.3344 13.3312C47.5709 13.3228 47.8074 13.3465 48.0375 13.4016C49.7531 17.8453 48.6703 21.1359 48.3469 21.9516C50.3578 24.2156 51.5812 27.0984 51.5812 30.614C51.5812 43.0172 44.2125 45.7453 37.1953 46.5469C38.3203 47.5453 39.3328 49.514 39.3328 52.5234C39.3328 56.8406 39.2906 60.3281 39.2906 61.3828C39.2906 62.1422 39.7266 63 40.8937 63C41.0827 63.0008 41.2712 62.982 41.4562 62.9437C53.9859 58.6687 63 46.5609 63 32.3016C63 14.4703 48.8953 0 31.5 0Z" fill="white"/>
</svg>
